<?xml version="1.0" standalone="no"?>
<!DOCTYPE svg PUBLIC "-//W3C//DTD SVG 20010904//EN"
 "http://www.w3.org/TR/2001/REC-SVG-20010904/DTD/svg10.dtd">
<svg version="1.0" xmlns="http://www.w3.org/2000/svg"
 width="104.000000pt" height="102.000000pt" viewBox="0 0 104.000000 102.000000"
 preserveAspectRatio="xMidYMid meet">

<g transform="translate(0.000000,102.000000) scale(0.100000,-0.100000)"
fill="#000000" stroke="none">
<path d="M500 985 c-8 -8 -25 -23 -37 -35 -30 -26 -31 -82 -3 -110 27 -27 90
-27 115 0 39 43 15 120 -41 134 -14 4 -22 11 -19 16 9 15 1 12 -15 -5z"/>
<path d="M710 935 c-47 -7 -92 -14 -99 -14 -10 -1 -12 -4 -5 -11 7 -7 44 -5
116 5 59 9 133 15 165 13 l58 -3 -38 -23 c-20 -13 -35 -28 -32 -33 9 -14 80
36 80 57 0 17 -9 19 -80 21 -44 0 -118 -5 -165 -12z"/>
<path d="M355 878 c-27 -6 -117 -23 -199 -39 -82 -15 -151 -31 -154 -34 -14
-14 11 -14 79 -1 41 9 126 25 189 36 161 29 160 29 160 40 0 11 -7 11 -75 -2z"/>
<path d="M788 834 c-41 -22 -34 -37 7 -17 19 9 35 20 35 25 0 11 -11 9 -42 -8z"/>
<path d="M510 800 c0 -5 5 -10 10 -10 6 0 10 5 10 10 0 6 -4 10 -10 10 -5 0
-10 -4 -10 -10z"/>
<path d="M668 774 c-26 -14 -38 -34 -20 -34 10 0 72 39 72 45 0 9 -25 4 -52
-11z"/>
<path d="M453 748 c-23 -26 -39 -143 -18 -135 6 3 19 -1 30 -9 55 -40 145 9
145 79 0 52 -37 87 -93 87 -32 0 -49 -6 -64 -22z"/>
<path d="M336 561 c-15 -16 -23 -31 -18 -35 5 -3 21 8 36 23 15 16 23 31 18
35 -5 3 -21 -8 -36 -23z"/>
<path d="M510 530 c0 -5 5 -10 11 -10 5 0 7 5 4 10 -3 6 -8 10 -11 10 -2 0 -4
-4 -4 -10z"/>
<path d="M261 459 c-16 -47 -13 -80 10 -119 25 -41 37 -51 107 -91 40 -24 52
-36 52 -55 0 -62 89 -96 142 -54 25 19 26 19 136 -5 116 -27 325 -64 331 -59
12 10 -17 23 -66 29 -63 8 -252 46 -320 64 -39 11 -43 15 -43 42 0 45 -47 89
-95 89 -28 0 -44 -7 -65 -30 l-28 -30 -59 39 c-42 27 -66 51 -81 81 -19 40
-20 46 -6 78 16 40 18 52 5 52 -5 0 -14 -14 -20 -31z"/>
<path d="M510 459 c0 -5 5 -7 10 -4 6 3 10 8 10 11 0 2 -4 4 -10 4 -5 0 -10
-5 -10 -11z"/>
<path d="M510 430 c0 -5 5 -10 10 -10 6 0 10 5 10 10 0 6 -4 10 -10 10 -5 0
-10 -4 -10 -10z"/>
<path d="M510 400 c0 -5 5 -10 11 -10 5 0 7 5 4 10 -3 6 -8 10 -11 10 -2 0 -4
-4 -4 -10z"/>
<path d="M510 329 c0 -5 5 -7 10 -4 6 3 10 8 10 11 0 2 -4 4 -10 4 -5 0 -10
-5 -10 -11z"/>
<path d="M510 100 c0 -5 5 -10 11 -10 5 0 7 5 4 10 -3 6 -8 10 -11 10 -2 0 -4
-4 -4 -10z"/>
<path d="M510 70 c0 -5 5 -10 11 -10 5 0 7 5 4 10 -3 6 -8 10 -11 10 -2 0 -4
-4 -4 -10z"/>
<path d="M510 29 c0 -5 5 -7 10 -4 6 3 10 8 10 11 0 2 -4 4 -10 4 -5 0 -10 -5
-10 -11z"/>
</g>
</svg>
